HIERARCHY
ROOT Hips
{
	OFFSET 51.542301 1.902891 53.584000
	CHANNELS 6 Xposition Yposition Zposition Xrotation Yrotation Zrotation
	JOINT spine
	{
		OFFSET 0.000000 -0.393701 6.846371
		CHANNELS 3 Xrotation Yrotation Zrotation
		JOINT spine1
		{
			OFFSET 0.000000 -0.000002 9.496212
			CHANNELS 3 Xrotation Yrotation Zrotation
			JOINT spine2
			{
				OFFSET 0.000000 -0.000001 9.099091
				CHANNELS 3 Xrotation Yrotation Zrotation
				JOINT Neck
				{
					OFFSET 0.000000 -1.113784 23.361198
					CHANNELS 3 Xrotation Yrotation Zrotation
					JOINT Head
					{
						OFFSET 0.000000 -0.000001 7.058022
						CHANNELS 3 Xrotation Yrotation Zrotation
						End Site
						{
							OFFSET 0.000000 5.634188 17.084404
						}
					}
				}
				JOINT RightShoulder
				{
					OFFSET -3.831360 0.533489 9.826309
					CHANNELS 3 Xrotation Yrotation Zrotation
					JOINT RightArm
					{
						OFFSET 0.000000 -0.000002 12.888100
						CHANNELS 3 Xrotation Yrotation Zrotation
						JOINT RightArmRoll
						{
							OFFSET 0.000000 -0.000001 6.506172
							CHANNELS 3 Xrotation Yrotation Zrotation
							JOINT RightForeArm
							{
								OFFSET 0.000000 -0.000003 18.950096
								CHANNELS 3 Xrotation Yrotation Zrotation
								JOINT RightForeArmRoll
								{
									OFFSET 0.000000 -0.000001 7.300934
									CHANNELS 3 Xrotation Yrotation Zrotation
									JOINT RightHand
									{
										OFFSET 0.000000 -0.000002 14.651398
										CHANNELS 3 Xrotation Yrotation Zrotation
										End Site
										{
											OFFSET 0.000000 0.000000 0.100006
										}
									}
								}
							}
						}
					}
				}
				JOINT LeftShoulder
				{
					OFFSET 3.831360 0.533489 9.826309
					CHANNELS 3 Xrotation Yrotation Zrotation
					JOINT LeftArm
					{
						OFFSET 0.000000 -0.000002 12.888100
						CHANNELS 3 Xrotation Yrotation Zrotation
						JOINT LeftArmRoll
						{
							OFFSET 0.000000 -0.000001 6.506172
							CHANNELS 3 Xrotation Yrotation Zrotation
							JOINT LeftForeArm
							{
								OFFSET 0.000000 -0.000003 18.950096
								CHANNELS 3 Xrotation Yrotation Zrotation
								JOINT LeftForeArmRoll
								{
									OFFSET 0.000000 -0.000001 7.300934
									CHANNELS 3 Xrotation Yrotation Zrotation
									JOINT LeftHand
									{
										OFFSET 0.000000 -0.000002 14.651398
										CHANNELS 3 Xrotation Yrotation Zrotation
										End Site
										{
											OFFSET 0.000000 0.000000 0.100006
										}
									}
								}
							}
						}
					}
				}
			}
		}
	}
	JOINT RightUpLeg
	{
		OFFSET -6.068371 0.933477 -1.112782
		CHANNELS 3 Xrotation Yrotation Zrotation
		JOINT RightUpLegRoll
		{
			OFFSET 0.000000 -0.000003 17.179600
			CHANNELS 3 Xrotation Yrotation Zrotation
			JOINT RightLeg
			{
				OFFSET 0.000000 0.000004 -21.274300
				CHANNELS 3 Xrotation Yrotation Zrotation
				JOINT RightLegRoll
				{
					OFFSET 0.000000 -0.000004 21.343903
					CHANNELS 3 Xrotation Yrotation Zrotation
					JOINT RightFoot
					{
						OFFSET 0.000000 -0.000003 17.765198
						CHANNELS 3 Xrotation Yrotation Zrotation
						JOINT RightToeBase
						{
							OFFSET 0.000000 -0.000002 14.850800
							CHANNELS 3 Xrotation Yrotation Zrotation
							End Site
							{
								OFFSET 0.006294 0.829004 7.192139
							}
						}
					}
				}
			}
		}
	}
	JOINT LeftUpLeg
	{
		OFFSET 6.068371 0.933477 -1.112782
		CHANNELS 3 Xrotation Yrotation Zrotation
		JOINT LeftUpLegRoll
		{
			OFFSET 0.000000 -0.000003 17.179699
			CHANNELS 3 Xrotation Yrotation Zrotation
			JOINT LeftLeg
			{
				OFFSET 0.000000 -0.000003 21.274200
				CHANNELS 3 Xrotation Yrotation Zrotation
				JOINT LeftLegRoll
				{
					OFFSET 0.000000 -0.000004 21.541199
					CHANNELS 3 Xrotation Yrotation Zrotation
					JOINT LeftFoot
					{
						OFFSET 0.000000 -0.000003 17.567894
						CHANNELS 3 Xrotation Yrotation Zrotation
						JOINT LeftToeBase
						{
							OFFSET 0.000000 -0.000002 14.850800
							CHANNELS 3 Xrotation Yrotation Zrotation
							End Site
							{
								OFFSET -0.028210 0.829004 7.192139
							}
						}
					}
				}
			}
		}
	}
}
MOTION
Frames: 6
Frame Time: 0.041667
51.364597 0.179007 55.087296 15.472846 -3.346753 -5.565579 2.036124 0.615023 0.713501 8.067965 1.261077 1.397767 9.713015 1.277734 1.382563 9.901066 18.098881 -1.497820 18.313668 -14.552693 0.295849 -7.629262 -36.978105 -7.084272 -55.028515 -152.537467 -103.607952 -0.000000 -0.000001 -0.000003 31.071299 -26.684154 13.593110 0.000007 -0.000015 -3.006701 -5.000182 -7.999939 0.000097 -13.542016 53.044523 15.762016 109.398628 21.796807 -72.618858 -0.000001 0.000003 0.000003 27.749402 39.525902 -14.508929 0.000008 -0.000003 2.999972 -5.000155 8.000189 -0.000082 -97.949421 -173.657478 1.326055 -179.999991 0.000005 -1.021996 99.952046 -1.103223 -2.492940 -0.000004 -0.000000 1.877410 62.801397 8.357909 -0.759735 25.456955 -7.355613 0.000010 -96.094621 166.525462 -5.308160 -0.000004 0.000010 -0.521022 -89.167717 -0.107455 5.566272 -0.000002 -0.000005 -1.904140 72.622294 -7.215011 -0.936640 25.456960 7.355613 -0.000001 
51.355595 0.207043 55.069305 15.366611 -3.350294 -5.566820 2.031835 0.618712 0.716638 8.059309 1.268550 1.403913 9.704352 1.285277 1.388622 9.901384 18.098471 -1.501053 18.300788 -14.546365 0.289231 -7.648929 -37.032207 -7.116209 -55.057424 -152.633240 -103.395916 0.000000 -0.000002 -0.000003 30.767157 -26.858556 13.526539 0.000006 -0.000013 -3.006700 -5.000182 -7.999939 0.000098 -13.527696 53.076031 15.745633 109.413319 21.749506 -72.783083 0.000000 0.000004 0.000007 27.524918 39.614233 -14.437512 0.000012 -0.000002 2.999969 -5.000160 8.000187 -0.000083 -97.873209 -173.666125 1.266395 -179.999991 0.000005 -1.016997 99.967496 -1.073044 -2.461423 -0.000005 -0.000000 1.872369 62.750963 8.330548 -0.691499 25.456953 -7.355614 0.000010 -96.011225 166.509234 -5.318368 -0.000004 0.000010 -0.521966 -89.146659 -0.102659 5.562915 -0.000002 -0.000005 -1.902410 72.575172 -7.216883 -0.936469 25.456962 7.355614 -0.000001 
51.342503 0.224832 55.057499 15.263473 -3.353891 -5.566597 2.026810 0.622463 0.719245 8.049191 1.276107 1.409014 9.694234 1.292897 1.393625 9.903383 18.096591 -1.504139 18.285786 -14.539446 0.282752 -7.669242 -37.091841 -7.149540 -55.088904 -152.727046 -103.182739 -0.000000 -0.000002 -0.000002 30.456630 -27.027788 13.455673 0.000008 -0.000013 -3.006699 -5.000183 -7.999938 0.000099 -13.511885 53.107186 15.727412 109.426317 21.704862 -72.941837 -0.000001 0.000000 0.000005 27.303435 39.704064 -14.368307 0.000008 -0.000003 2.999968 -5.000156 8.000189 -0.000081 -97.801984 -173.673720 1.195268 -179.999991 0.000005 -1.011996 99.980439 -1.038678 -2.426297 -0.000005 0.000000 1.866361 62.699251 8.296603 -0.608696 25.456955 -7.355615 0.000011 -95.932056 166.495328 -5.327536 -0.000004 0.000010 -0.522932 -89.126011 -0.097277 5.559382 -0.000002 -0.000005 -1.900490 72.527470 -7.218377 -0.937379 25.456959 7.355613 -0.000001 
51.326797 0.256560 55.044895 15.163554 -3.357642 -5.564980 2.021100 0.626288 0.721312 8.037690 1.283777 1.413042 9.682739 1.300620 1.397564 9.906696 18.093649 -1.506933 18.268989 -14.532191 0.276594 -7.689871 -37.156345 -7.183743 -55.122010 -152.820005 -102.967451 -0.000001 -0.000002 -0.000004 30.140614 -27.192100 13.380908 0.000004 -0.000014 -3.006700 -5.000186 -7.999939 0.000096 -13.495139 53.138353 15.708061 109.437355 21.662589 -73.095209 -0.000000 0.000003 0.000007 27.084482 39.794943 -14.300922 0.000010 -0.000001 2.999968 -5.000152 8.000190 -0.000080 -97.735506 -173.680236 1.116109 -179.999991 0.000005 -1.005002 99.991121 -1.000697 -2.388538 -0.000004 0.000001 1.859529 62.646679 8.257028 -0.513638 25.456948 -7.355612 0.000011 -95.856917 166.483607 -5.333536 -0.000003 0.000010 -0.523923 -89.105671 -0.091401 5.555571 0.000000 -0.000005 -1.898390 72.479324 -7.219576 -0.939172 25.456959 7.355614 -0.000002 
51.319897 0.285269 55.032997 15.066533 -3.361617 -5.562048 2.014720 0.630196 0.722832 8.024863 1.291582 1.415975 9.669906 1.308458 1.400409 9.911003 18.090074 -1.509283 18.250435 -14.524879 0.270860 -7.710452 -37.224541 -7.218209 -55.156134 -152.912554 -102.749630 -0.000001 0.000000 -0.000003 29.819773 -27.352097 13.302668 0.000007 -0.000014 -3.006700 -5.000183 -7.999940 0.000098 -13.477997 53.169669 15.688241 109.446282 21.622528 -73.243356 -0.000003 0.000005 0.000008 26.867647 39.886908 -14.235188 0.000007 -0.000003 2.999970 -5.000155 8.000188 -0.000082 -97.673672 -173.685659 1.028997 -179.999991 0.000006 -0.997995 99.999611 -0.959818 -2.347030 -0.000005 0.000000 1.852052 62.593670 8.212921 -0.408794 25.456953 -7.355616 0.000011 -95.785651 166.473895 -5.338105 -0.000004 0.000010 -0.524943 -89.085959 -0.085053 5.551609 -0.000002 -0.000005 -1.896140 72.430898 -7.220521 -0.941746 25.456959 7.355614 -0.000001 
51.311199 0.312738 55.019402 14.972531 -3.365905 -5.557838 2.007701 0.634195 0.723794 8.010774 1.299548 1.417807 9.655829 1.316439 1.402143 9.915923 18.086157 -1.511015 18.230642 -14.517668 0.265760 -7.730620 -37.295739 -7.252417 -55.191910 -153.003464 -102.531815 -0.000000 -0.000003 -0.000006 29.495161 -27.507827 13.221352 0.000008 -0.000013 -3.006701 -5.000184 -7.999938 0.000099 -13.461009 53.201467 15.668659 109.453440 21.584284 -73.387377 0.000000 0.000002 0.000006 26.652358 39.979600 -14.170694 0.000010 -0.000003 2.999970 -5.000154 8.000189 -0.000083 -97.615991 -173.690153 0.935489 -179.999991 0.000005 -0.990004 100.006011 -0.916791 -2.304748 -0.000005 0.000000 1.844070 62.540347 8.165329 -0.296522 25.456950 -7.355616 0.000012 -95.718114 166.465985 -5.341032 -0.000004 0.000011 -0.525996 -89.066992 -0.078314 5.547501 -0.000001 -0.000006 -1.893769 72.382588 -7.221192 -0.944872 25.456960 7.355613 -0.000001 
